<?xml version="1.0" encoding="UTF-8"?><svg id="Ebene_1" xmlns="http://www.w3.org/2000/svg" viewBox="0 0 299 299"><defs><style>.cls-1{fill:#ff0;}</style></defs><path class="cls-1" d="m232.07,274.13l-3.66-2.49c-3.7-2.52-2.93-5.96-2.03-9.94,1.5-6.68,5.01-22.33,8.01-43.33,7.78-54.44,23.86-89.11,32.5-107.74.72-1.54,1.44-3.1,2.12-4.6-7.43,7.1-17.77,19.09-24.83,27.27-23.33,27.05-31.54,35.58-39.51,32.95-8.88-2.93-6.06-15.49-4.7-21.53,1.79-7.97,4.99-18.24,8.09-28.17,2.19-7.01,5.01-16.04,6.89-23.33-3.2,4.79-6.82,10.69-10.05,15.94-19.34,31.48-45.77,74.48-77.81,74.49-.27,0-.54,0-.81,0-2.22-.04-4.28-.17-6.28-.4l-7.45-.85,1.89-7.25c8.83-33.84,18.15-59.68,24.95-78.55,7.49-20.77,13.4-37.17,9.21-40.23-2.43-1.78-4.35-1.4-12.24,1.14-9.42,3.04-23.64,7.62-47.6,5.7-13.2-1.05-29.25-6.98-40.18-11.34l-9.42-3.76,7.35-6.99C74.42,14.6,110.99,0,149.5,0c82.43,0,149.5,67.07,149.5,149.5,0,48.42-23.62,94.05-63.17,122.07l-.1.07-3.66,2.48Zm48.62-162.38c-.62,1.36-1.29,2.81-2.01,4.36-8.36,18.02-23.92,51.56-31.42,104.11-1.66,11.62-3.47,21.62-5.03,29.45,27.67-25.67,43.77-61.97,43.77-100.16,0-13.09-1.85-25.76-5.31-37.75ZM145.55,42.28c3.56,0,7.11.95,10.73,3.59,12.05,8.81,6.11,25.26-4.66,55.14-6.18,17.14-14.46,40.1-22.5,69.55,24.13-2.17,48.43-41.72,64.7-68.2,13.8-22.46,20.73-33.73,29.94-30.75,8.8,2.85,6.11,14.76,4.67,21.17-1.76,7.78-4.91,17.88-7.96,27.65-2.61,8.36-6.45,20.67-8.18,28.75,6.24-6.04,15.36-16.61,22.04-24.36,18.81-21.8,29.26-33.24,37.15-36.54C249.01,43.67,202.77,13,149.5,13c-31.64,0-61.84,10.79-86.12,30.59,7.86,2.81,18.19,6,26.43,6.66,21.39,1.72,33.63-2.23,42.57-5.12,4.49-1.45,8.84-2.85,13.17-2.85Zm131.12,57.94"/><path class="cls-1" d="m149.5,299C67.07,299,0,231.93,0,149.5c0-41.37,16.52-79.86,46.53-108.38l3.02-2.87,3.87,1.55c5.84,2.33,23.62,9.43,36.39,10.45,21.38,1.71,33.63-2.23,42.57-5.12,8.17-2.63,15.89-5.12,23.9.74,12.05,8.81,6.11,25.26-4.66,55.14-6.18,17.14-14.46,40.1-22.5,69.55,24.13-2.17,48.43-41.72,64.7-68.2,13.8-22.46,20.73-33.73,29.94-30.75,8.8,2.85,6.11,14.76,4.67,21.17-1.76,7.78-4.91,17.88-7.96,27.65-2.61,8.36-6.45,20.67-8.18,28.75,6.24-6.04,15.36-16.61,22.04-24.36,24.89-28.86,35.14-39.54,44.2-37.26,1.27.32,5.15,1.3,6.9,5.09,1.95,4.22.11,7.94-3.22,14.7-6.23,12.62-20.81,42.17-35.02,113.23-4.02,20.08-3.15,27.82-2.68,31.97.82,7.33-.32,10.03-7.63,18.1l-.48.53-.58.41c-25.33,17.94-55.18,27.43-86.33,27.43ZM52.54,53.42c-25.53,25.73-39.54,59.68-39.54,96.08,0,75.27,61.23,136.5,136.5,136.5,28.2,0,55.23-8.51,78.23-24.63,2.49-2.77,3.85-4.49,4.05-5.12.04-.27-.09-1.38-.19-2.27-.55-4.86-1.56-13.9,2.85-35.97h0c12.78-63.91,26-95.31,33.4-110.86-7.32,7.19-16.97,18.38-23.67,26.14-23.33,27.05-31.54,35.58-39.51,32.95-8.88-2.93-6.06-15.49-4.7-21.53,1.79-7.97,4.99-18.24,8.09-28.17,2.19-7.01,5.01-16.04,6.89-23.33-3.2,4.79-6.82,10.69-10.05,15.94-19.34,31.48-45.77,74.48-77.81,74.49-.27,0-.54,0-.81,0-2.22-.04-4.28-.17-6.28-.4l-7.45-.85,1.89-7.25c8.83-33.84,18.15-59.68,24.95-78.55,7.49-20.77,13.4-37.17,9.21-40.23-2.43-1.78-4.35-1.4-12.24,1.14-9.42,3.04-23.64,7.62-47.6,5.7-11.69-.93-25.61-5.68-36.23-9.79Zm224.14,46.81"/><path class="cls-1" d="m231.28,265.81c-.1.1-.19.21-.29.32"/><path class="cls-1" d="m69.13,242.58c-6.42,0-13.06-.92-19.56-2.8-15.79-4.57-27.99-14.31-33.46-26.71-2.42-5.46-7.19-19.49.15-33.15,11.13-20.71,38.17-27.9,72.33-19.22,6.04,1.53,10.8,2.84,14.62,3.89,6.99,1.92,11.21,3.08,15.82,3.59l7.48.82-1.9,7.28c-1.56,6-3.07,12.09-4.47,18.08h0s-.31,1.32-.31,1.32c-3.19,13.68-6.81,29.19-20.94,38.71-8.01,5.39-18.56,8.19-29.77,8.19Zm-7.37-72.57c-23.19,0-31.67,11.66-34.04,16.07-4.75,8.84-1.01,18.82.26,21.67,3.95,8.96,13.12,16.05,25.21,19.55,14.01,4.05,29.1,2.6,38.45-3.69,9.89-6.66,12.76-18.97,15.54-30.88l.31-1.33c.9-3.83,1.83-7.69,2.8-11.54-3.11-.69-6.43-1.61-10.51-2.73-3.77-1.03-8.45-2.32-14.37-3.83-9.21-2.34-17.02-3.29-23.64-3.29Z"/><path class="cls-1" d="m50.85,46.14c-1.1-.44-2.06-.83-2.85-1.14"/><path class="cls-1" d="m67.02,241.33c-6.48,0-13.11-.9-19.49-2.75-15.54-4.5-27.08-13.72-32.47-25.96-2.36-5.34.79-8.21,1.82-8.96,2.53-1.86,5.98-1.67,8.41.45l-8.56,9.79c2.12,1.85,5.37,1.98,7.74.32,2.76-1.94,3.09-5.28,2.45-6.93l.04.1c3.82,8.66,12.41,15.31,24.19,18.72,14.08,4.07,29.99,2.47,39.58-3.99,7.81-5.26,15.63-20.49,22.03-42.9.97-3.4,1.56-4.67,2.4-5.92.08-.23.26-.78.56-1.94l12.58,3.28c-.8,3.08-1.32,4.4-2.3,5.83-.08.21-.31.82-.74,2.31-7.45,26.08-16.63,42.94-27.27,50.11-8.22,5.54-19.33,8.44-30.96,8.44Z"/></svg>